<svg width="18" height="17" fill="none" xmlns="http://www.w3.org/2000/svg"><path d="M11.088 5h0l.003.005c.198.46.623.777 1.123.823 0 0 0 0 0 0l4.955.466s0 0 0 0c.318.03.431.418.225.612l-3.73 3.257h-.001c-.38.334-.54.832-.428 1.321h0l.002.007 1.107 4.57v.001a.353.353 0 01-.525.385l-4.134-2.414h0l-.002-.002a1.364 1.364 0 00-1.366 0h0l-.002.002-4.133 2.414a.356.356 0 01-.526-.384l1.121-4.571h0l.002-.008a1.341 1.341 0 00-.428-1.32h0L.617 6.903a.35.35 0 01.2-.61s0 0 0 0l4.954-.466h.001a1.34 1.34 0 001.129-.835L8.66.72h0V.716a.352.352 0 01.65 0h0l.001.005L11.088 5z" fill="#FC9B09" stroke="#FC9B09"/></svg>